# xmcd
#
# Track frame offsets:
# 150
# 12805
# 25907
# 37625
# 53480
# 68702
# 79787
# 91185
# 103872
# 115990
# 131417
# 142260
# 154022
# 165982
# 178165
# 191252
# 206380
# 218722
# 234242
# 248907
#
# Disc length: 3488 seconds
#
#
# Revision: 1
# Processed by: cddbd v1.5.1PL2 Copyright (c) Steve Scherf et al.
# Submitted via: FreeRIP 2.945 
#
DISCID=f90d9e14
DTITLE=Louvin Brothers - 20 Greatest Gospel Hits
DYEAR=2002
DGENRE=Gospel
TTITLE0=Wait A Little Longer, Please Jesus
TTITLE1=Family Who Prays
TTITLE2=Robe Of White
TTITLE3=Thank God For My Christian Home
TTITLE4=Oh Lord, My God
TTITLE5=Preach The Gospel
TTITLE6=God Bless Her ('Cause She's My Mother)
TTITLE7=Nearer, My God, To Thee
TTITLE8=I See A Bridge
TTITLE9=What Would You Give In Exchange For Your Soul
TTITLE10=Born Again
TTITLE11=If We Forget God
TTITLE12=Make Him A Soldier
TTITLE13=Praying
TTITLE14=Kneelling Drunkard's Plea
TTITLE15=O Why Not Tonight
TTITLE16=Now Lord, What Can I Do For You
TTITLE17=Wreck On The Highway
TTITLE18=Lord, I'm Coming Home
TTITLE19=Pray For Me
EXTD=TeeVee Records
EXTT0=
EXTT1=
EXTT2=
EXTT3=
EXTT4=
EXTT5=
EXTT6=
EXTT7=
EXTT8=
EXTT9=
EXTT10=
EXTT11=
EXTT12=
EXTT13=
EXTT14=
EXTT15=
EXTT16=
EXTT17=
EXTT18=
EXTT19=
PLAYORDER=
